<svg width="32" height="32" viewBox="0 0 32 32" xmlns="http://www.w3.org/2000/svg">
    <path d="M17.5 9a5 5 0 013.87 8.165l.726.724h.707l4.87 4.87-1.414 1.414-4.87-4.87v-.707l-.725-.724A5 5 0 1117.5 9zM6 17v6H5v-6h1zm6-1v7h-1v-7h1zm2 2.863c.312.226.646.422 1 .584V23h-1zm7 0V23h-1v-3.553a5.9 5.9 0 001-.584zm2 3.465l.672.672H23v-.672zM9 12v11H8V12h1zm9 7.975V23h-1v-3.025c.165.014.331.025.5.025.169 0 .335-.011.5-.025zM27 12v8.672l-1-1V12h1zm-9.5-2a4 4 0 100 8 4 4 0 000-8zm6.5 6v1.672l-.783-.783H23V16h1z" fill-rule="nonzero" fill="#fff"/>
</svg>
