<svg width="32" height="32" viewBox="0 0 32 32" xmlns="http://www.w3.org/2000/svg">
    <path d="M27.901 6c.744 0 1.349.64 1.349 1.426v17.648c0 .786-.605 1.426-1.349 1.426H4.1c-.744 0-1.35-.64-1.35-1.426V7.426C2.75 6.64 3.356 6 4.1 6h23.801zm.849 3H3.25v16.074c0 .51.381.926.85.926h23.801c.469 0 .849-.416.849-.926V9zM13 12.25v9h-1.5a4.507 4.507 0 01-4.472-3.999L5 17.25v-1h2.028c.25-2.247 2.16-4 4.472-4H13zm7.5 0a4.507 4.507 0 014.473 4H27v1l-2.027.001A4.507 4.507 0 0120.5 21.25H19v-2h-3a.5.5 0 010-1h3v-3h-3a.5.5 0 010-1h3v-2h1.5zm0 1H20v7h.5c1.93 0 3.5-1.57 3.5-3.5s-1.57-3.5-3.5-3.5zm-8.5 0h-.5c-1.93 0-3.5 1.57-3.5 3.5s1.57 3.5 3.5 3.5h.5v-7zM27.901 6.5H4.1c-.469 0-.85.416-.85.926V8.5h25.5V7.426c0-.51-.38-.926-.849-.926z" fill-rule="evenodd" fill="#fff"/>
</svg>
