<svg width="32" height="32" viewBox="0 0 32 32" xmlns="http://www.w3.org/2000/svg">
    <path d="M22 7.5c1.379 0 2.5 1.122 2.5 2.5v12c0 1.378-1.121 2.5-2.5 2.5H10A2.503 2.503 0 017.5 22V10c0-1.378 1.12-2.5 2.5-2.5zm-7.965 6.002a.497.497 0 00-.482.275L12 16.882l-1.553-3.105a.501.501 0 00-.367-.27c-.027-.005-.053.006-.08.006v1.605l1.553 3.106c.17.339.724.339.894 0l1.46-2.92 1.618 4.855a.502.502 0 00.44.34H16a.5.5 0 00.447-.275l1.69-3.38 1.51 1.51a.503.503 0 00.769-.076L22 15.902v-1.388a.495.495 0 00-.416.209l-1.662 2.493-1.568-1.57a.499.499 0 00-.801.13l-1.46 2.92-1.618-4.854a.501.501 0 00-.44-.34zm-8.087-1c.018-.001.034.01.052.01v1.835l-1.536 3.839a.5.5 0 01-.88.09L3 17.402v-1.802l.888 1.333 1.648-4.117a.497.497 0 01.412-.312zM26 15.5a.5.5 0 01.354.147L28 17.293l1-1v1.414l-.646.647a.502.502 0 01-.708 0L26 16.707z" fill-rule="evenodd" fill="#fff"/>
</svg>
