<svg width="32" height="32" viewBox="0 0 32 32" xmlns="http://www.w3.org/2000/svg">
    <path d="M14.928 6l1 1h4a1 1 0 011 1v5a1 1 0 01-1 1h-3.5v3.71l1.518.877a1 1 0 01.794-.58l.117-.007h3l1 1h4a1 1 0 011 1v5a1 1 0 01-1 1h-8a1 1 0 01-1-1v-5.31l-1.929-1.113-1.969 1.138c.016.054.028.11.035.168L14 20v5a1 1 0 01-1 1H5a1 1 0 01-1-1v-6a1 1 0 011-1h3l1 1h4c.058 0 .114.005.17.014l2.257-1.303V14h-3.499a1 1 0 01-.993-.883L10.928 13V7a1 1 0 011-1h3zM7.586 19H5v6h8v-5H8.586l-1-1zm13.856 0h-2.585v6h8v-5h-4.415l-1-1zM14.514 7h-2.586v6h8V8h-4.414l-1-1z" fill-rule="evenodd" fill="#fff"/>
</svg>
