<svg width="32" height="32" viewBox="0 0 32 32" xmlns="http://www.w3.org/2000/svg">
    <path d="M16 9.25c.534 0 1.032.288 1.299.75l6.061 10.5a1.5 1.5 0 01-1.298 2.25H9.938A1.5 1.5 0 018.64 20.5L14.701 10c.267-.462.765-.75 1.299-.75zm0 1a.505.505 0 00-.434.25L9.505 21a.502.502 0 00.433.75h12.124a.498.498 0 00.433-.75l-6.061-10.5a.505.505 0 00-.434-.25zm.75 8.75v1.5h-1.5V19h1.5zM5.948 12.753a.502.502 0 01.468.22l1.662 2.492 1.568-1.569a.5.5 0 01.434-.14c.042.007.076.032.115.048L8.888 16.07l-.535.534a.497.497 0 01-.769-.076l-1.473-2.209-1.647 4.117a.5.5 0 01-.88.092L3 17.651v-1.803l.89 1.333 1.646-4.117a.499.499 0 01.412-.31zm19.698 3.144a.5.5 0 01.708 0L28 17.543l1-1v1.414l-.646.647a.502.502 0 01-.708 0L26 16.957l-1.506 1.506-.416-.998zM16.5 13.5V18h-1v-4.5h1z" fill-rule="evenodd" fill="#fff"/>
</svg>
