<svg width="32" height="32" viewBox="0 0 32 32" xmlns="http://www.w3.org/2000/svg">
    <path d="M16.5 25v5h-1v-5h1zm8.5-7v9h-1v-9h1zM9 18v9H8v-9h1zm-3 4.5v1H4v-1h2zm23 0v1h-2v-1h2zm-7 0v1H11v-1h11zM16.5 11v2.042A3.002 3.002 0 0118.96 15.5H28v1h-9.042a3.002 3.002 0 01-2.457 2.458L16.5 21h-1v-2.041a3.002 3.002 0 01-2.458-2.458L4 16.5v-1h9.041a3.002 3.002 0 012.46-2.459L15.5 11h1zm-.5 3c-1.103 0-2 .897-2 2s.897 2 2 2 2-.897 2-2-.897-2-2-2zM9 5v9H8V5h1zm16 0v9h-1V5h1zM6 8.5v1H4v-1h2zm23 0v1h-2v-1h2zm-7 0v1H11v-1h11zM16.5 2v5h-1V2h1z" fill-rule="evenodd" fill="#fff"/>
</svg>
