<svg width="32" height="32" viewBox="0 0 32 32" xmlns="http://www.w3.org/2000/svg">
    <path d="M17.5 18.392a.608.608 0 01-.608.608h-1.784a.608.608 0 01-.608-.608v-6.783c0-.336.272-.609.608-.609h1.784c.336 0 .608.273.608.609v6.783zm0 4.5a.608.608 0 01-.608.608h-1.784a.608.608 0 01-.608-.608v-1.783c0-.336.272-.609.608-.609h1.784c.336 0 .608.273.608.609v1.783zm9.758.358l-9.526-16.5a2.002 2.002 0 00-3.464 0l-9.526 16.5a1.996 1.996 0 000 2c.357.62 1.017 1 1.732 1h19.052a2.001 2.001 0 001.732-3z" fill-rule="evenodd" fill="#fff"/>
</svg>
