<svg width="144" height="144" viewBox="0 0 144 144" xmlns="http://www.w3.org/2000/svg">
    <path d="M86.688 82.093c2.812-3.727 4.374-8.074 4.374-13.043 0-12.112-9.687-22.05-21.874-22.05C57 47 47 56.938 47 69.05S57 91.1 69.188 91.1c5 0 9.687-1.553 13.124-4.349l9.376 9.317c.624.621 1.562.932 2.187.932.625 0 1.563-.31 2.188-.932 1.25-1.242 1.25-3.105 0-4.347l-9.376-9.628zm-17.5 2.484c-8.75 0-15.938-6.832-15.938-15.527 0-8.696 7.188-15.839 15.938-15.839s15.937 7.143 15.937 15.839c0 8.695-7.188 15.528-15.938 15.528z" fill-rule="evenodd"/>
</svg>
