<svg width="96" height="96" viewBox="0 0 96 96" xmlns="http://www.w3.org/2000/svg">
    <g fill-rule="nonzero">
        <path d="M71.608 30.297l-.766-.766a2.165 2.165 0 00-3.062 0L54.765 42.546a2.166 2.166 0 000 3.063l.765.765a2.165 2.165 0 003.063 0L71.608 33.36a2.165 2.165 0 000-3.062zM54.316 50.383c0-4.331-7.579-5.414-8.662-1.802-.722 2.407-2.526 5.114-5.413 8.12l2.03-.128c4.738-.315 7.471-.628 8.2-.939l.21-.096c1.164-.51 3.635-1.017 3.635-5.155z"/>
        <path d="M65.685 40.993l3.248-3.249v27.61c0 1.196-.97 2.165-2.166 2.165H26.165A2.165 2.165 0 0124 65.354V43.158L35.91 31.79h28.15l-3.248 3.248h-23.82v6.496a3.248 3.248 0 01-3.248 3.248h-6.496v19.489h38.437V40.993z"/>
    </g>
</svg>
