<svg width="144" height="144" viewBox="0 0 144 144" xmlns="http://www.w3.org/2000/svg">
    <g fill-rule="nonzero">
        <path d="M98.632 23.5H45.368C33.291 23.5 23.5 33.29 23.5 45.368v53.264c0 12.077 9.79 21.868 21.868 21.868h53.264c12.077 0 21.868-9.79 21.868-21.868V45.368c0-12.077-9.79-21.868-21.868-21.868zm-53.264 5h53.264c9.316 0 16.868 7.552 16.868 16.868v53.264c0 9.316-7.552 16.868-16.868 16.868H45.368c-9.316 0-16.868-7.552-16.868-16.868V45.368c0-9.316 7.552-16.868 16.868-16.868z"/>
        <path d="M52 67h40a5 5 0 010 10H52a5 5 0 010-10z"/>
    </g>
</svg>
