<svg width="96" height="96" viewBox="0 0 96 96" xmlns="http://www.w3.org/2000/svg">
    <path d="M74.167 73.083H21.256c-.695 0-1.256.621-1.256 1.39 0 .766.563 1.388 1.256 1.388h52.91c.695 0 1.256-.622 1.256-1.389 0-.768-.56-1.389-1.255-1.389zM23.972 44.401h12.542L32.936 47.6h-8.964V44.4zm23.806-6.63l11.02 9.828h-22.04l11.02-9.828zm23.805 6.63V47.6H62.62l-3.577-3.196 12.541-.002zM66.32 68.504h5.278v-19.11H66.32v19.11zm-7.058 0h5.278v-19.11H59.26v19.11zm-7.057 0h5.278v-19.11h-5.278v19.11zm-7.058 0h5.278v-19.11h-5.278v19.11zm-7.057 0h5.278v-19.11h-5.278v19.11zm-7.058 0v-19.11h5.277v19.11h-5.277zm-7.057 0v-19.11h5.277v19.11h-5.277zM49.03 27.32h8.926v-3.822H49.03v3.822zM72.914 71a1.258 1.258 0 00.885-.365 1.247 1.247 0 00.368-.884V43.154a1.249 1.249 0 00-1.253-1.25H56.246l-7.215-6.446v-5.566h10.18a1.251 1.251 0 001.253-1.248V22.25A1.247 1.247 0 0059.208 21h-11.43a1.258 1.258 0 00-.885.365 1.25 1.25 0 00-.368.884v13.208l-7.215 6.447H22.643a1.25 1.25 0 00-1.254 1.25V69.75a1.247 1.247 0 001.253 1.249h50.272V71z" fill-rule="evenodd"/>
</svg>
