<svg width="96" height="96" viewBox="0 0 96 96" xmlns="http://www.w3.org/2000/svg">
    <g fill-rule="nonzero">
        <path d="M25.556 29.944a2.778 2.778 0 00-2.778 2.778V68.14a2.778 2.778 0 002.778 2.778H70a2.778 2.778 0 002.778-2.778V32.722A2.778 2.778 0 0070 29.944H25.556zm0-2.777H70a5.555 5.555 0 015.556 5.555V68.14A5.555 5.555 0 0170 73.694H25.556A5.555 5.555 0 0120 68.14V32.722a5.555 5.555 0 015.28-5.549l.276-.006z"/>
        <path d="M32.5 24.382a1.389 1.389 0 012.778 0v8.347a1.389 1.389 0 01-2.778 0v-8.347zm27.778 0a1.389 1.389 0 012.778 0v8.347a1.389 1.389 0 01-2.778 0v-8.347zM20.694 41.75v-2.083h54.171v2.083h-54.17zM65.833 46.611h-2.777c-.768 0-1.39.622-1.39 1.389v1.389c0 .767.622 1.389 1.39 1.389h2.777c.767 0 1.39-.622 1.39-1.39V48c0-.767-.623-1.389-1.39-1.389zM54.722 46.611h-2.778c-.767 0-1.388.622-1.388 1.389v1.389c0 .767.621 1.389 1.388 1.389h2.778c.767 0 1.39-.622 1.39-1.39V48c0-.767-.623-1.389-1.39-1.389zM43.611 46.611h-2.778c-.767 0-1.389.622-1.389 1.389v1.389c0 .767.622 1.389 1.39 1.389h2.777c.767 0 1.389-.622 1.389-1.39V48c0-.767-.622-1.389-1.389-1.389zM32.5 54.25h-2.778c-.767 0-1.389.622-1.389 1.389v1.389c0 .767.622 1.389 1.39 1.389H32.5c.767 0 1.389-.622 1.389-1.39V55.64c0-.767-.622-1.389-1.389-1.389zM65.833 54.25h-2.777c-.768 0-1.39.622-1.39 1.389v1.389c0 .767.622 1.389 1.39 1.389h2.777c.767 0 1.39-.622 1.39-1.39V55.64c0-.767-.623-1.389-1.39-1.389zM54.722 54.25h-2.778c-.767 0-1.388.622-1.388 1.389v1.389c0 .767.621 1.389 1.388 1.389h2.778c.767 0 1.39-.622 1.39-1.39V55.64c0-.767-.623-1.389-1.39-1.389zM43.611 54.25h-2.778c-.767 0-1.389.622-1.389 1.389v1.389c0 .767.622 1.389 1.39 1.389h2.777c.767 0 1.389-.622 1.389-1.39V55.64c0-.767-.622-1.389-1.389-1.389zM32.5 61.889h-2.778c-.767 0-1.389.622-1.389 1.389v1.389c0 .767.622 1.389 1.39 1.389H32.5c.767 0 1.389-.622 1.389-1.39v-1.388c0-.767-.622-1.39-1.389-1.39zM54.722 61.889h-2.778c-.767 0-1.388.622-1.388 1.389v1.389c0 .767.621 1.389 1.388 1.389h2.778c.767 0 1.39-.622 1.39-1.39v-1.388c0-.767-.623-1.39-1.39-1.39zM43.611 61.889h-2.778c-.767 0-1.389.622-1.389 1.389v1.389c0 .767.622 1.389 1.39 1.389h2.777c.767 0 1.389-.622 1.389-1.39v-1.388c0-.767-.622-1.39-1.389-1.39z"/>
    </g>
</svg>
