<svg xmlns="http://www.w3.org/2000/svg" viewBox="0 0 48 48">
  <g id="Layer_2" data-name="Layer 2">
    <g id="Layer_1-2" data-name="Layer 1">
      <g id="Substation">
        <g>
          <g>
            <rect x="6.5" y="9" width="35" height="30" rx="3" fill="none" stroke="#fff" stroke-miterlimit="10" stroke-width="1.5"/>
            <g>
              <rect x="12.375" y="17.5" width="11" height="21.5" fill="none" stroke="#fff" stroke-miterlimit="10" stroke-width="1.5"/>
              <path d="M29.188,28.78a.319.319,0,0,1-.548-.3L30.4,23.016h-1.06a.318.318,0,0,1-.3-.426l2.026-5.629a.317.317,0,0,1,.3-.211h4.945a.319.319,0,0,1,.265.5l-3.178,4.768h.818a.318.318,0,0,1,.243.524Z" fill="#fff"/>
              <line x1="15.375" y1="21" x2="20.375" y2="21" fill="none" stroke="#fff" stroke-linecap="round" stroke-miterlimit="10" stroke-width="1.5"/>
              <line x1="15.375" y1="24.5" x2="20.375" y2="24.5" fill="none" stroke="#fff" stroke-linecap="round" stroke-miterlimit="10" stroke-width="1.5"/>
              <line x1="15.375" y1="28" x2="20.375" y2="28" fill="none" stroke="#fff" stroke-linecap="round" stroke-miterlimit="10" stroke-width="1.5"/>
              <line x1="15.375" y1="31.5" x2="20.375" y2="31.5" fill="none" stroke="#fff" stroke-linecap="round" stroke-miterlimit="10" stroke-width="1.5"/>
              <line x1="15.375" y1="35" x2="20.375" y2="35" fill="none" stroke="#fff" stroke-linecap="round" stroke-miterlimit="10" stroke-width="1.5"/>
            </g>
          </g>
          <rect id="Background" width="48" height="48" fill="none"/>
        </g>
      </g>
    </g>
  </g>
</svg>
