<svg width="144" height="144" viewBox="0 0 144 144" xmlns="http://www.w3.org/2000/svg">
    <path d="M87.6 108.6a2.152 2.152 0 01-2.151-2.149v-10.4A4.354 4.354 0 0081.1 91.7h-2.6a8.661 8.661 0 01-8.65-8.65v-8.4c-8.988-1.066-15.6-8.671-15.6-18.253v-5.846A2.153 2.153 0 0156.4 48.4h5.65V37.551a2.15 2.15 0 114.3 0V48.4h11.3V37.551a2.15 2.15 0 014.3 0V48.4h5.65a2.153 2.153 0 012.15 2.151V56.4c0 9.582-6.61 17.187-15.6 18.253v8.4A4.354 4.354 0 0078.5 87.4h2.6a8.66 8.66 0 018.649 8.651v10.4A2.152 2.152 0 0187.6 108.6zM58.551 52.7v3.7c0 7.907 5.908 14.1 13.449 14.1 7.541 0 13.448-6.194 13.448-14.1v-3.7H58.551z" fill-rule="evenodd" fill="#fff"/>
</svg>
