<svg width="144" height="144" viewBox="0 0 144 144" xmlns="http://www.w3.org/2000/svg">
    <g fill-rule="evenodd">
        <path d="M93 97.528H51A4.533 4.533 0 0146.472 93V51A4.533 4.533 0 0151 46.472h42A4.533 4.533 0 0197.528 51v42A4.533 4.533 0 0193 97.528zm-42-48c-.813 0-1.471.66-1.472 1.472v42c0 .813.66 1.471 1.472 1.472h42c.813 0 1.471-.66 1.472-1.472V51c0-.813-.66-1.471-1.472-1.472H51z" fill="#fff"/>
        <path d="M73.373 81.528a9.528 9.528 0 010-19.056v3.056a6.472 6.472 0 000 12.944v3.056z" fill="#fff"/>
        <path d="M74.4 77.528a5.528 5.528 0 11.01-11.056 5.528 5.528 0 01-.01 11.056zm0-8a2.472 2.472 0 10.008 4.944 2.472 2.472 0 00-.008-4.944zM52 70.472h13.373v3.057H52z" fill="#fff"/>
        <path d="M78.404 70.472H92v3.057H78.404z" fill="#fff"/>
    </g>
</svg>
