<svg width="144" height="144" viewBox="0 0 144 144" xmlns="http://www.w3.org/2000/svg">
    <path d="M93 46.472A4.533 4.533 0 0197.528 51v42A4.533 4.533 0 0193 97.528H51A4.533 4.533 0 0146.472 93V51A4.533 4.533 0 0151 46.472h42zm0 3.056H51c-.813 0-1.471.66-1.472 1.472v42c0 .813.66 1.471 1.472 1.472h42c.813 0 1.471-.66 1.472-1.472V51c0-.813-.66-1.471-1.472-1.472zM73.373 62.472v3.056a6.472 6.472 0 000 12.944v3.056c-4.741 0-8.674-3.463-9.406-7.998L52 73.529v-3.057h11.967c.73-4.536 4.664-8 9.406-8zm1.034 4a5.53 5.53 0 015.312 4H92v3.057l-12.283.001a5.528 5.528 0 11-5.31-7.058zm-.007 3.056a2.472 2.472 0 10.008 4.944 2.472 2.472 0 00-.008-4.944z" fill-rule="evenodd" fill="#fff"/>
</svg>
