<svg width="144" height="144" viewBox="0 0 144 144" xmlns="http://www.w3.org/2000/svg">
    <path d="M97.794 39.5a4.482 4.482 0 014.3 3.158l8.125 26a4.5 4.5 0 01-4.3 5.842h-4.42l.001 27.5a4.505 4.505 0 01-4.5 4.5H73.528v5.186a5.54 5.54 0 013.786 3.786H100v3.057H77.312A5.535 5.535 0 0172 122.529a5.53 5.53 0 01-5.314-3.998L44 118.529v-3.057h22.686a5.54 5.54 0 013.785-3.786V106.5H47a4.505 4.505 0 01-4.5-4.5V74.5H38.08a4.5 4.5 0 01-4.3-5.842l8.125-26a4.482 4.482 0 014.3-3.158h51.588zm.706 35h-53V102a1.5 1.5 0 001.5 1.5h29.5v-24h15v24H97a1.5 1.5 0 001.5-1.5V74.5zm-.706-32H46.206a1.5 1.5 0 00-1.433 1.053l-8.125 26a1.5 1.5 0 001.433 1.947h67.838a1.5 1.5 0 001.433-1.947l-8.125-26a1.5 1.5 0 00-1.433-1.053zm-9.294 40v21h-9v-21h9zm-21-3v15h-15v-15h15zm-12 12h9v-9h-9v9zM72 114.528a2.472 2.472 0 100 4.944 2.472 2.472 0 000-4.944z" fill-rule="evenodd" fill="#fff"/>
</svg>
