<svg width="144" height="144" viewBox="0 0 144 144" xmlns="http://www.w3.org/2000/svg">
    <path d="M30.975 35.942c2.355 0 3.371 2.927 3.994 5.477a33.413 33.413 0 01-.082 15.731l-.206.85a6.186 6.186 0 012.2 3.058l1.776.5a33.462 33.462 0 0113.679 7.8c1.895 1.817 3.919 4.161 2.742 6.2a3.113 3.113 0 01-2.94 1.394 14.261 14.261 0 01-3.922-.718 33.585 33.585 0 01-13.616-8.02l1.165 34.971a4.795 4.795 0 01-4.532 4.946l-.258.007a4.795 4.795 0 01-4.792-4.953l1.165-34.914A33.6 33.6 0 0113.8 76.227a14.279 14.279 0 01-3.92.717 3.115 3.115 0 01-2.943-1.395c-1.178-2.038.848-4.381 2.744-6.2a33.429 33.429 0 0113.667-7.793l1.722-.5A6.213 6.213 0 0127.26 58l-.16-.63a33.61 33.61 0 01-.143-15.828c.626-2.609 1.648-5.6 4.018-5.6zm-.355 33.184l-1.138 34.168c-.015.406.137.8.42 1.09.61.545 1.533.545 2.143 0 .284-.29.437-.684.422-1.09l-1.138-34.167a5.591 5.591 0 01-.709-.001zM119.969 42.4a1.7 1.7 0 011.59 1.073l15.729 38.606a1.714 1.714 0 01-1.588 2.36h-31.175V98.17h6.864a1.715 1.715 0 010 3.43H84.217a1.715 1.715 0 010-3.43h6.867V84.439H59.908a1.712 1.712 0 01-1.589-2.356L74.05 43.47a1.7 1.7 0 011.588-1.07h44.331zm8.751 27.739h-17.2l2.012 10.87h19.616l-4.428-10.87zm-20.693 0H87.579l-2.014 10.87h24.477l-2.015-10.87zm-23.937 0h-17.2l-4.432 10.87h19.619l2.013-10.87zm-47.13-5.635a6.063 6.063 0 01-.375 1.04l.28.269a30.273 30.273 0 0012.288 7.249c.846.272 1.717.462 2.6.566a13.422 13.422 0 00-1.7-1.892 30.122 30.122 0 00-12.313-7.012l-.78-.22zM25 64.516l-.729.21a30.1 30.1 0 00-12.31 7.011 13.534 13.534 0 00-1.7 1.89 13.641 13.641 0 002.6-.565 30.27 30.27 0 0012.289-7.249l.234-.227a6.128 6.128 0 01-.384-1.07zm98.478-7.246h-14.345l1.748 9.439h16.441l-3.844-9.439zm-17.831 0H89.961l-1.749 9.439h19.182l-1.747-9.439zm-19.174 0H72.13l-3.845 9.439h16.44l1.748-9.439zm-55.497 2.768a2.901 2.901 0 10.208.008l-.208-.008zm.003-20.265h-.002a13.9 13.9 0 00-.811 2.539 30.285 30.285 0 00.134 14.266l.049.2a5.335 5.335 0 011.231 0l.1-.4a30.133 30.133 0 00.086-14.178 13.364 13.364 0 00-.787-2.427zm87.837 6.056h-11.8l1.484 8.01h13.58l-3.264-8.01zm-15.283 0H92.079l-1.479 8.01h14.416l-1.483-8.01zm-14.941 0H76.79l-3.257 8.01H87.11l1.482-8.01z" fill-rule="evenodd" fill="#fff"/>
</svg>
