<svg width="144" height="144" viewBox="0 0 144 144" xmlns="http://www.w3.org/2000/svg">
    <path d="M89 35.472A4.533 4.533 0 0193.528 40v46a4.516 4.516 0 01-1.14 3.001A4.506 4.506 0 0193.528 92v10A4.533 4.533 0 0189 106.528H55A4.533 4.533 0 0150.472 102V92a4.516 4.516 0 011.14-3 4.514 4.514 0 01-1.14-3V40A4.533 4.533 0 0155 35.472h34zm-34 3.056c-.813 0-1.471.66-1.472 1.472v46c0 .813.66 1.471 1.472 1.472h34c.813 0 1.471-.66 1.472-1.472V40c0-.813-.66-1.471-1.472-1.472H55zm34 52c.813 0 1.471.66 1.472 1.472v10c0 .813-.66 1.471-1.472 1.472H55c-.813 0-1.471-.66-1.472-1.472V92c0-.813.66-1.471 1.472-1.472zM61.5 62v14h-3V62h3z" fill-rule="evenodd" fill="#fff"/>
</svg>
