<svg width="144" height="144" viewBox="0 0 144 144" xmlns="http://www.w3.org/2000/svg">
    <path d="M72.04 23.664a2.25 2.25 0 012.25 2.25v10.247a40.715 40.715 0 0119.452 6.527c.163.117.288.272.368.447.173.254.279.56.287.891v4.926a1.646 1.646 0 01-3.291 0l-.001-4.219H74.29v6.751a53.757 53.757 0 0126.354 8.654c.465.333.694.898.603 1.45l-.002 4.895a1.646 1.646 0 01-3.291 0v-3.645l-23.664.001v55.325a2.25 2.25 0 01-4.5 0V62.839l-23.546.001.001 3.643a1.645 1.645 0 01-3.291 0v-4.926a1.64 1.64 0 01.166-.682c.102-.305.304-.576.586-.764a49.808 49.808 0 0126.085-8.67l-.001-6.708H53.114l.001 4.313a1.645 1.645 0 01-3.291 0V44.12a1.64 1.64 0 01.396-1.031c.086-.167.214-.314.379-.424a37.74 37.74 0 0119.191-6.54V25.914a2.25 2.25 0 012.25-2.25z" fill-rule="evenodd" fill="#fff"/>
</svg>
