<svg width="32" height="32" viewBox="0 0 32 32" xmlns="http://www.w3.org/2000/svg">
    <path d="M27.901 6c.744 0 1.349.64 1.349 1.426v17.648c0 .786-.605 1.426-1.349 1.426H4.1c-.744 0-1.35-.64-1.35-1.426V7.426C2.75 6.64 3.356 6 4.1 6h23.801zm-14.9 6.25h-1.5a4.507 4.507 0 00-4.473 4H5v1l2.028.001A4.507 4.507 0 0011.5 21.25H13v-9zm7.5 0H19l-.001 2h-3a.5.5 0 00-.492.41l-.008.09a.5.5 0 00.5.5h3v3h-3a.5.5 0 00-.492.41l-.008.09a.5.5 0 00.5.5h3v2h1.5a4.507 4.507 0 004.473-3.999L27 17.25v-1h-2.027c-.25-2.247-2.16-4-4.473-4zm0 1c1.93 0 3.5 1.57 3.5 3.5s-1.57 3.5-3.5 3.5H20v-7zm-8.5 0v7h-.5c-1.93 0-3.5-1.57-3.5-3.5s1.57-3.5 3.5-3.5h.5zM27.75 6.5H4.25a1 1 0 00-1 1V8h25.5v-.5a1 1 0 00-1-1z" fill-rule="evenodd"/>
</svg>
