<svg width="32" height="32" viewBox="0 0 32 32" xmlns="http://www.w3.org/2000/svg">
    <path d="M16 2a3 3 0 013 3v2h3a3 3 0 013 3v3h2a3 3 0 010 6h-2v3a3 3 0 01-3 3h-2.982l.033-1.896a3 3 0 00-2.77-3.043l-.177-.009a3 3 0 00-3.043 2.771l-.009.177-.035 2H10a3 3 0 01-3-3v-3h2a3 3 0 002.995-2.824L12 16a3 3 0 00-2.824-2.995L9 13H7v-3a3 3 0 013-3h3V5a3 3 0 013-3zm0 1a2 2 0 00-1.995 1.85L14 5v3h-4a2 2 0 00-1.995 1.85L8 10v2h1.029l.205.007a4.004 4.004 0 013.76 3.815l.006.207-.007.205a4 4 0 01-3.789 3.76L9 20H8v2a2 2 0 001.85 1.995L10 24h2.034l.02-1.047.01-.205a4.004 4.004 0 013.88-3.693l.207-.002.205.01a4 4 0 013.694 3.855l.001.204-.016.878H22a2 2 0 001.995-1.85L24 22v-4h3a2 2 0 00.15-3.995L27 14h-3v-4a2 2 0 00-1.85-1.995L22 8h-4V5a2 2 0 00-2-2z" fill-rule="nonzero"/>
</svg>
