<svg width="32" height="32" viewBox="0 0 32 32" xmlns="http://www.w3.org/2000/svg">
    <path d="M22 7.5c1.379 0 2.5 1.122 2.5 2.5v12c0 1.378-1.121 2.5-2.5 2.5H10A2.503 2.503 0 017.5 22V10c0-1.378 1.121-2.5 2.5-2.5zm0 1H10c-.827 0-1.5.673-1.5 1.5v12c0 .827.673 1.5 1.5 1.5h12c.827 0 1.5-.673 1.5-1.5V10c0-.827-.673-1.5-1.5-1.5zm-7.965 5.002a.501.501 0 01.44.34l1.618 4.855 1.46-2.92a.501.501 0 01.801-.13l1.568 1.569 1.662-2.493a.495.495 0 01.416-.21v1.389l-1.584 2.376a.503.503 0 01-.769.076l-1.51-1.51-1.69 3.38A.5.5 0 0116 20.5l-.035-.001a.502.502 0 01-.44-.34l-1.618-4.855-1.46 2.92c-.17.339-.724.339-.894 0L10 15.118v-1.605c.027 0 .053-.011.08-.006a.501.501 0 01.367.27L12 16.882l1.553-3.105a.497.497 0 01.482-.275zm-8.087-1c.018-.001.034.01.052.01v1.835l-1.536 3.839a.5.5 0 01-.88.09L3 17.402v-1.802l.888 1.333 1.648-4.117a.497.497 0 01.412-.312zM26 15.5a.5.5 0 01.354.147L28 17.293l1-1v1.414l-.646.647a.502.502 0 01-.708 0L26 16.707z" fill-rule="evenodd"/>
</svg>
