<svg width="32" height="32" viewBox="0 0 32 32" xmlns="http://www.w3.org/2000/svg">
    <g fill-rule="evenodd">
        <path d="M16 5.25c-.892 0-1.718.477-2.165 1.25L4.31 23a2.496 2.496 0 000 2.5 2.496 2.496 0 002.165 1.25h19.052A2.501 2.501 0 0027.691 23L18.166 6.5A2.502 2.502 0 0016 5.25zm0 1c.536 0 1.032.287 1.3.75l9.525 16.5a1.501 1.501 0 01-1.299 2.25H6.474A1.497 1.497 0 015.176 25a1.497 1.497 0 010-1.5L14.7 7c.268-.463.764-.75 1.3-.75z" fill-rule="nonzero"/>
        <path d="M17.5 18.392a.608.608 0 01-.608.608h-1.784a.608.608 0 01-.608-.608v-6.783c0-.336.272-.609.608-.609h1.784c.336 0 .608.273.608.609v6.783zM17.5 22.892a.608.608 0 01-.608.608h-1.784a.608.608 0 01-.608-.608v-1.783c0-.336.272-.609.608-.609h1.784c.336 0 .608.273.608.609v1.783z"/>
    </g>
</svg>
