<svg width="144" height="144" viewBox="0 0 144 144" xmlns="http://www.w3.org/2000/svg">
    <path d="M72 22c27.5 0 50 22.5 50 50s-22.5 50-50 50-50-22.5-50-50 22.5-50 50-50zM47 72h-6.25v6.25H47v.575c0 5.412 1.013 9.669 2.919 13.231a19.875 19.875 0 008.275 8.275c3.562 1.906 7.819 2.919 13.231 2.919h1.15c5.412 0 9.669-1.013 13.231-2.919a20.355 20.355 0 004.325-3.094l-7.125-6.23c-.5.393-1.037.743-1.618 1.055-2.22 1.188-5 1.813-8.813 1.813h-1.15c-3.813 0-6.594-.625-8.813-1.813a10.5 10.5 0 01-4.425-4.424c-1.187-2.22-1.812-5-1.812-8.813v-.575H72V72H56.375v-6.25H72V59.5H56.994c.294-1.169.694-2.2 1.194-3.138a10.5 10.5 0 014.424-4.425c2.22-1.187 5-1.812 8.813-1.812h1.15c3.813 0 6.594.625 8.813 1.813a11.16 11.16 0 011.624 1.056l7.12-6.231a20.175 20.175 0 00-4.326-3.094c-3.556-1.906-7.819-2.919-13.231-2.919h-1.15c-5.412 0-9.669 1.013-13.231 2.919a19.875 19.875 0 00-8.275 8.275c-1.188 2.212-2.025 4.694-2.488 7.556H40.75v6.25H47V72z" fill-rule="evenodd"/>
</svg>
