<svg width="144" height="144" viewBox="0 0 144 144" xmlns="http://www.w3.org/2000/svg">
    <path d="M32.125 76.294h8.587c1.813 6.519 7.594 11.331 14.363 11.331 6.769 0 12.55-4.813 14.362-11.331h41.938c2.313 0 4.125-1.888 4.125-4.294 0-2.406-1.813-4.294-4.125-4.294H69.437c-1.812-6.519-7.593-11.331-14.362-11.331s-12.544 4.813-14.363 11.331h-8.587C29.812 67.706 28 69.594 28 72c0 2.406 1.813 4.294 4.125 4.294zm22.95-11.331c3.631 0 6.769 3.087 6.769 7.037 0 3.95-2.969 7.037-6.769 7.037-3.794 0-6.769-3.087-6.769-7.037 0-3.868 3.008-6.908 6.543-7.033l.226-.004zm56.3 33.993h-8.919c-1.812-6.525-7.594-11.331-14.362-11.331-6.769 0-12.544 4.813-14.363 11.331H32.125c-2.313 0-4.125 1.888-4.125 4.294 0 2.406 1.813 4.294 4.125 4.294h41.606c1.813 6.525 7.594 11.331 14.363 11.331 6.769 0 12.55-4.813 14.362-11.331h8.919c2.313 0 4.125-1.888 4.125-4.294 0-2.406-1.813-4.294-4.125-4.294zm-23.281 11.331c-3.631 0-6.769-3.087-6.769-7.037 0-3.95 2.975-7.037 6.769-7.037 3.8 0 6.769 3.262 6.769 7.037s-3.138 7.037-6.77 7.037zM32.125 45.044h41.606c1.813 6.519 7.594 11.331 14.363 11.331 6.769 0 12.55-4.813 14.362-11.331h8.919c2.313 0 4.125-1.888 4.125-4.294 0-2.406-1.813-4.294-4.125-4.294h-8.919c-1.812-6.519-7.594-11.331-14.362-11.331-6.769 0-12.544 4.813-14.363 11.331H32.125c-2.313 0-4.125 1.888-4.125 4.294 0 2.406 1.813 4.294 4.125 4.294zm55.969-11.331c3.631 0 6.769 3.087 6.769 7.037 0 3.95-2.97 7.038-6.77 7.038-3.793 0-6.768-3.088-6.768-7.038s3.138-7.038 6.769-7.038z" fill-rule="evenodd"/>
</svg>
