<svg width="144" height="144" viewBox="0 0 144 144" xmlns="http://www.w3.org/2000/svg">
    <g fill-rule="evenodd">
        <path d="M71.75 31.125c22.35 0 40.625 18.275 40.625 40.625S94.1 112.375 71.75 112.375 31.125 94.1 31.125 71.75 49.4 31.125 71.75 31.125zm0 6.25c-18.9 0-34.375 15.475-34.375 34.375s15.475 34.375 34.375 34.375 34.375-15.475 34.375-34.375S90.65 37.375 71.75 37.375z"/>
        <path d="M71.75 90.5c-2.813 0-4.688-1.875-4.688-4.688 0-2.812 1.876-4.687 4.688-4.687 2.813 0 4.688 1.875 4.688 4.688 0 2.812-1.876 4.687-4.688 4.687zm4.375-14.063h-8.75V53h8.75v23.438z"/>
    </g>
</svg>
