<svg width="96" height="96" viewBox="0 0 96 96" xmlns="http://www.w3.org/2000/svg">
    <g fill-rule="nonzero">
        <path d="M63.632 25.278l-6.205.002-1.177.005c-.493.76-1.204 1.333-2.075 1.704-1.889.807-3.822 1.222-5.737 1.222-1.91 0-3.821-.412-5.673-1.217-.516-.223-.922-.534-1.344-.947l-.255-.26-.422-.466a.485.485 0 00-.211-.055l-7.395.012c2.166 6.641 1.144 12.916-3.048 18.883-.791 1.127-2.429 2.38-4.543 3.596a.575.575 0 00-.283.493l.004 21.814c0 1.05.386 1.436 1.444 1.436h19.182l4.882.01.175.004.275-.006h19.237a.79.79 0 00.215-.032c.558-.155.833-.537.833-1.298V57.214c0-2.94-.001-5.882-.004-8.822 0-.18-.089-.314-.225-.368-1.588-.642-2.94-1.727-4.108-3.249-4.595-5.994-5.78-12.48-3.542-19.497zm-12.68 48.805l-.181-.004-4.882-.01H26.714c-2.476 0-4.015-1.534-4.015-4.004v-5.112c0-5.568 0-11.134-.005-16.702 0-1.12.6-2.163 1.571-2.722 1.813-1.042 3.203-2.105 3.723-2.844 3.75-5.342 4.626-10.804 2.679-16.699-.366-1.104-.106-1.847.176-2.274.268-.408.81-.915 1.856-1.004l6.85-.008 1.394-.006c.84 0 1.288.438 1.564.741l.162.184c.359.405.764.864 1.119 1.018 1.536.667 3.1 1.005 4.65 1.005 1.56 0 3.15-.342 4.726-1.016.442-.188.76-.45.968-.8l.083-.155c.261-.547.874-.947 1.457-.953l6.297-.014 2.184.004c.747.064 1.36.406 1.733.964.295.442.568 1.214.195 2.38-1.982 6.21-.959 11.823 3.132 17.16.832 1.082 1.74 1.843 2.771 2.315l.26.112a2.948 2.948 0 011.834 2.747l.003 12.443c.002 3.117.004 6.233 0 9.352-.002 1.886-1.014 3.295-2.712 3.77a3.344 3.344 0 01-.905.125c-6.411.006-12.826.005-19.239.002l-.274.005z" fill="#fff"/>
        <path d="M50.803 70.056c-.593 0-1.074-.437-1.074-.977v-3.135c0-3.673 0-7.472-.051-11.204-.088-7.07 1.278-14.3 4.172-22.101l1.065-2.86c.195-.51.806-.783 1.366-.605.56.175.86.732.666 1.241l-1.062 2.85c-2.817 7.59-4.145 14.606-4.059 21.452.031 2.245.044 4.514.048 6.764l.004 7.6c-.002.54-.482.977-1.075.977v-.002zm-5.206 0c-.591 0-1.072-.437-1.072-.977v-3.135c0-3.679 0-7.483.051-11.229.084-6.843-1.243-13.86-4.058-21.448l-1.064-2.85c-.193-.511.106-1.067.667-1.243.56-.178 1.172.097 1.365.607l1.067 2.86c2.894 7.8 4.258 15.03 4.17 22.096-.05 3.737-.05 7.534-.05 11.207v3.137c0 .54-.481.977-1.074.977l-.002-.002zM40.358 57.382H27.513a.964.964 0 100 1.926h12.845a.964.964 0 100-1.926zM68.622 57.382H55.776a.964.964 0 100 1.926h12.846a.964.964 0 100-1.926zM41 52.243H28.154a.964.964 0 100 1.926H41a.964.964 0 100-1.926zM67.98 52.243H55.136a.964.964 0 100 1.926H67.98a.964.964 0 100-1.926z" fill="#fff"/>
    </g>
</svg>
