<svg width="144" height="144" viewBox="0 0 144 144" xmlns="http://www.w3.org/2000/svg">
    <path d="M71.625 24.875c24.163 0 43.75 19.587 43.75 43.75s-19.587 43.75-43.75 43.75-43.75-19.587-43.75-43.75c0-24.162 19.588-43.75 43.75-43.75zm0 6.25c-20.71 0-37.5 16.79-37.5 37.5a37.325 37.325 0 006.136 20.563c5.969-5.702 18.794-14.76 31.526-14.76 12.685 0 25.301 9.067 31.203 14.758a37.32 37.32 0 006.135-20.561c0-20.71-16.79-37.5-37.5-37.5zm0 2.679c9.616 0 17.41 7.795 17.41 17.41 0 9.616-7.794 17.411-17.41 17.411s-17.41-7.795-17.41-17.41c0-9.616 7.794-17.411 17.41-17.411z" fill-rule="evenodd" fill="#fff"/>
</svg>
