<svg width="96" height="96" viewBox="0 0 96 96" xmlns="http://www.w3.org/2000/svg">
    <path d="M70.799 39.479v2.877H24.757V39.25c.005-.464.064-.726.483-.948 6.982-3.707 13.625-7.268 20.599-10.99.732-.39 1.476-1.05 2.214-1.05.739 0 1.7.774 2.43 1.165l15.478 8.262c1.47.784 2.95 1.573 4.451 2.371.34.18.382.4.387 1.418zm0 4.396V71.19c0 .962-.084 1.102-.95 1.115l-12.296.013.01-19.743.164-.01c.176-.016.46-.056.692-.157 1.107-.486.846-1.598.846-2.544 0-.738-.502-1.195-1.27-1.292a4.06 4.06 0 00-.521-.026l-19.152.001c-1.86 0-2.81 1.72-1.865 3.371.199.349.832.63 1.224.63l.23.007c.092.008.08.02.08.02l-.005 19.743-12.022-.01c-1.093-.001-1.2-.066-1.207-1.066V43.875h46.042zm-13.721 7.399c-5.275-.014-10.547-.018-15.822-.024-.618 0-1.236.002-1.853.01l-1.114.016c-.423-.006-.714-.102-.711-.734.002-.616.29-.672.686-.676l4.88.007h9.337l4.893-.004c.353.013.601.102.602.674.003.722-.379.733-.898.732v-.001zm-.846 21.044h-7.797v-8.683h2.029c1.003 0 1.436-.568 1.418-1.634-.015-.933-.501-1.486-1.446-1.486h-2l-.001-7.94h7.808l-.01 10.144-.001 9.6zm-6.03-9.978l-4.875-.002c-.15-.008-.283-.052-.267-.271.016-.198.174-.217.321-.218l2.373-.004 2.436.002c.15.002.298.028.303.243.004.218-.14.248-.29.25zm-3.09 9.978h-7.797l-.005-19.743h7.808v7.94h-2.114c-.853 0-1.312.592-1.332 1.459-.023 1.02.464 1.66 1.36 1.66h2.08v8.684zm27.325-37.296l-17.05-9.11c-2.84-1.519-5.68-3.04-8.519-4.563-.776-.417-1.43-.406-2.203.012l-25.63 13.711c-1.117.597-1.293 1.195-.706 2.322l.807 1.507c.172.327.393.652.76.703.679.093.71.506.71 1.059-.013 10.408-.009 20.819-.007 31.227 0 1.696.677 2.37 2.377 2.37l45.242-.001c1.036-.007 1.393-.034 1.63-.134.981-.414 1.117-1.203 1.116-2.189-.01-10.314-.007-20.628-.006-30.942l.005-.476-.005-.237c-.015-.3.073-.482.356-.562l.101-.023c.5-.09.827-.425 1.053-.878.232-.468.495-.92.736-1.383.625-1.195.445-1.764-.766-2.413zM35 61.09h-3.357l-.003-5.004H35l-.001 5.004zm-7.966 0v-5.004h3.316l.002 5.004h-3.318zm7.414-6.303c-1.139-.014-2.278-.003-3.416-.003s-2.275-.008-3.414.002c-1.14.01-1.885.73-1.9 1.854-.019 1.304-.019 2.61 0 3.914.014 1.089.75 1.85 1.829 1.86 2.3.02 4.601.018 6.903 0 1.079-.007 1.847-.748 1.873-1.825a82.854 82.854 0 000-3.985c-.026-1.027-.72-1.731-1.715-1.81l-.16-.007zm34.057 6.303h-3.357l-.001-5.004h3.36l-.002 5.004zm-7.964 0l-.001-5.004h3.317l.002 5.004H60.54zm7.414-6.303c-1.139-.014-2.278-.003-3.416-.003-1.14 0-2.277-.008-3.416.002-1.139.01-1.883.73-1.898 1.854-.019 1.304-.019 2.61 0 3.914.014 1.089.748 1.85 1.827 1.86 2.3.02 4.602.018 6.903 0 1.08-.007 1.847-.748 1.875-1.825a82.854 82.854 0 000-3.985c-.026-1.027-.72-1.731-1.715-1.81l-.16-.007zM51.751 38.875h-3.357v-5.004h3.36l-.003 5.004zm-7.963 0l-.003-5.004H47.1l.003 5.004h-3.316zm7.413-6.303c-1.139-.014-2.277-.004-3.416-.004-1.14 0-2.278-.008-3.417.003-1.139.01-1.883.729-1.899 1.853a141.409 141.409 0 000 3.913c.014 1.09.75 1.852 1.83 1.862 2.3.02 4.601.018 6.902 0 1.08-.007 1.848-.748 1.874-1.825a81.148 81.148 0 000-3.986c-.026-1.026-.72-1.73-1.715-1.809l-.159-.007z" fill-rule="evenodd" fill="#fff"/>
</svg>
