<svg width="96" height="96" viewBox="0 0 96 96" xmlns="http://www.w3.org/2000/svg">
    <path d="M72.688 35.344L60.975 23.689c-.606-.581-.727-.653-.847-.675L60.02 23h0H40.11a3.05 3.05 0 00-3.047 3.047v22.11H26.047A3.05 3.05 0 0023 51.202v18.75A3.05 3.05 0 0026.047 73h43.906a3.052 3.052 0 003.042-2.864L73 35.969h0c0-.235-.156-.469-.313-.625zm-11.954-9.766l9.61 9.61h-8.047c-.86 0-1.484-.704-1.484-1.485v-8.125h-.079zm-6.718 24.14c.156 0 .234 0 .39.079l-2.18 2.14c-3.438 3.4-9.04 9.002-12.195 12.157L25.656 49.719c.157 0 .235-.078.39-.078h27.97v.078zm1.406 1.094c0 .157.078.235.078.391v18.828l-9.688-9.61 9.61-9.608zm-21.172 9.61l-9.688 9.61V51.202c0-.156 0-.234.079-.39l9.609 9.609zm-8.828 10.937l9.844-9.843 4.218 4.218a.71.71 0 00.547.235.71.71 0 00.547-.235l4.219-4.218 9.844 9.843a1.47 1.47 0 01-.625.157h-27.97c-.233 0-.468-.079-.624-.157zm44.531.157h-13.36c.235-.47.391-.938.391-1.485v-18.75a3.05 3.05 0 00-3.047-3.047H38.626V26.047c0-.86.703-1.485 1.484-1.485H59.25v9.22a3.05 3.05 0 003.047 3.046h9.14v33.203c0 .781-.624 1.485-1.484 1.485z" fill-rule="nonzero" fill="#fff"/>
</svg>
