<svg width="144" height="144" viewBox="0 0 144 144" xmlns="http://www.w3.org/2000/svg">
    <g fill-rule="evenodd">
        <path d="M98.632 20H45.368C31.358 20 20 31.358 20 45.368v53.264C20 112.642 31.358 124 45.368 124h53.264C112.642 124 124 112.642 124 98.632V45.368C124 31.358 112.642 20 98.632 20zM45.368 32h53.264C106.015 32 112 37.985 112 45.368v53.264c0 7.383-5.985 13.368-13.368 13.368H45.368C37.985 112 32 106.015 32 98.632V45.368C32 37.985 37.985 32 45.368 32z" fill-rule="nonzero" fill="#fff"/>
        <path d="M98.632 26C109.328 26 118 34.672 118 45.368v53.264C118 109.328 109.328 118 98.632 118H45.368C34.672 118 26 109.328 26 98.632V45.368C26 34.672 34.672 26 45.368 26h53.264zm.803 20.711L64.703 83.612 44.365 63.274 37.63 70.01l27.28 27.28 41.46-44.05-6.935-6.528z" fill="#fff"/>
    </g>
</svg>
