<svg width="96" height="96" viewBox="0 0 96 96" xmlns="http://www.w3.org/2000/svg">
    <g fill-rule="nonzero">
        <path d="M36.458 24.167v2.777h-3.514c-2.291 0-4.166 1.9-4.166 4.262v37.31c0 2.362 1.875 4.262 4.166 4.262H63.5c2.292 0 4.167-1.9 4.167-4.261V31.206c0-2.362-1.875-4.262-4.167-4.262h-2.82v-2.777h2.82c3.835 0 6.944 3.152 6.944 7.039v37.31c0 3.887-3.11 7.04-6.944 7.04H32.944c-3.834 0-6.944-3.153-6.944-7.04v-37.31c0-3.887 3.11-7.04 6.944-7.04h3.514z" fill="#fff"/>
        <path d="M40.583 22.778a1.389 1.389 0 00-1.389 1.389v2.083a1.389 1.389 0 001.39 1.389h15.972a1.389 1.389 0 001.388-1.389v-2.083a1.389 1.389 0 00-1.388-1.39H40.583zm0-2.778h15.973a4.167 4.167 0 014.166 4.167v2.083a4.167 4.167 0 01-4.166 4.167H40.583a4.167 4.167 0 01-4.166-4.167v-2.083A4.167 4.167 0 0140.583 20zm5.903 22.222a1.041 1.041 0 110-2.083H61.07a1.041 1.041 0 110 2.083H46.486zm0 10.417a1.041 1.041 0 110-2.083H61.07a1.041 1.041 0 110 2.083H46.486zm0 10.417a1.041 1.041 0 110-2.084H61.07a1.041 1.041 0 110 2.084H46.486zm-3.493-26.159a.937.937 0 00-1.378.164l-4.218 5.645c-.091.123-.187.204-.27.194-.074-.004-.171-.086-.252-.217l-1.439-2.312a.94.94 0 00-1.361-.292 1.098 1.098 0 00-.27 1.459l1.438 2.31c.435.698 1.09 1.117 1.8 1.15l.089.002c.676 0 1.326-.354 1.796-.982l4.218-5.644a1.103 1.103 0 00-.057-1.38l-.096-.097zm0 10.417a.937.937 0 00-1.378.164l-4.218 5.644c-.091.124-.187.204-.27.195-.074-.005-.171-.086-.252-.217l-1.439-2.313a.94.94 0 00-1.361-.291 1.098 1.098 0 00-.27 1.458l1.438 2.311c.435.697 1.09 1.117 1.8 1.15l.089.002c.676 0 1.326-.355 1.796-.982l4.218-5.645a1.103 1.103 0 00-.057-1.38l-.096-.096z" fill="#fff"/>
    </g>
</svg>
