<svg width="144" height="144" viewBox="0 0 144 144" xmlns="http://www.w3.org/2000/svg">
    <g fill-rule="evenodd">
        <path d="M71.917 119.833C45.452 119.833 24 98.381 24 71.917 24 45.452 45.452 24 71.917 24c26.464 0 47.916 21.452 47.916 47.917 0 26.464-21.452 47.916-47.916 47.916zm0-4.166c24.162 0 43.75-19.588 43.75-43.75 0-24.163-19.588-43.75-43.75-43.75-24.163 0-43.75 19.587-43.75 43.75 0 24.162 19.587 43.75 43.75 43.75z" fill="#fff"/>
        <path d="M53.302 90.531l25.4-11.829 11.83-25.4-25.4 11.83-11.83 25.4zm9.381-28.854l31.271-14.565c1.763-.82 3.588 1.005 2.767 2.767L82.158 81.15a2.083 2.083 0 01-1.008 1.008L49.88 96.721c-1.763.82-3.588-1.004-2.768-2.767l14.563-31.27a2.083 2.083 0 011.008-1.009v.002z" fill="#fff"/>
        <path d="M71.917 76.083a4.167 4.167 0 110-8.333 4.167 4.167 0 010 8.333z" fill="#fff"/>
    </g>
</svg>
