<svg width="144" height="144" viewBox="0 0 144 144" xmlns="http://www.w3.org/2000/svg">
    <path d="M66 4c13.67 0 24.776 10.97 24.997 24.587L91 29v70c0 9.941-8.059 18-18 18-9.831 0-17.82-7.88-17.997-17.67L55 99V42a5 5 0 019.995-.217L65 42v57a8 8 0 008 8 8 8 0 007.996-7.75L81 99V29c0-8.18-6.546-14.83-14.686-14.997L66 14h-6c-8.18 0-14.83 6.546-14.997 14.686L45 29v75c0 14.912 12.088 27 27 27 14.762 0 26.758-11.848 26.996-26.554L99 104V42a5 5 0 019.995-.217L109 42v62c0 20.434-16.566 37-37 37-20.23 0-36.668-16.236-36.995-36.388L35 104V29C35 15.33 45.97 4.224 59.587 4.003L60 4h6z" fill-rule="evenodd" fill="#fff"/>
</svg>
