<svg width="144" height="144" viewBox="0 0 144 144" xmlns="http://www.w3.org/2000/svg">
    <path d="M115.75 30.563a6.25 6.25 0 016.25 6.25v71.874a6.25 6.25 0 01-6.25 6.25h-87.5a6.251 6.251 0 01-6.25-6.25V36.814a6.25 6.25 0 016.25-6.25h87.5zM29.227 52.439l-4.102-.002v56.25a3.126 3.126 0 003.125 3.126h87.5a3.128 3.128 0 003.125-3.126v-56.25l-68.165.002a4.69 4.69 0 01-4.491 3.342h-12.5a4.69 4.69 0 01-4.492-3.342zm22.46 42.186l10.938 14.063h-1.776l-9.161-11.72v-2.343zm0-9.375l17.188 23.438h-1.653L51.688 87.594V85.25zm0 18.75l3.126 4.688H53.25l-1.563-2.344V104zm0-26.563l25 31.25h-1.562L51.687 79.781v-2.344zm0-9.374l34.376 40.624H84.5l-32.813-38.28v-2.344zm0-9.376l42.97 50h-1.563L51.688 61.032v-2.343zm6.25-3.124l45.313 53.124h-1.563L56.376 55.563h1.563zm6.25 0l47.657 53.124h-1.563L62.625 55.563h1.563zm7.883 0L115.75 104v1.563l-45.313-50h1.633zm7.813 0l35.867 39.843v1.563l-37.5-41.406h1.633zm7.812 0l28.055 31.25v1.562L86.062 55.562h1.633zm7.813 0l20.242 22.656v1.562L93.875 55.562h1.632zM41.74 68.94c1.058 0 1.96.751 2.245 1.772h1.392c.361-.002.646.295.646.67a.659.659 0 01-.182.47.653.653 0 01-.464.2h-1.392c-.284 1.02-1.187 1.77-2.245 1.77-1.056 0-1.96-.75-2.244-1.768h-6.5c-.36 0-.645-.297-.645-.672a.651.651 0 01.645-.67h6.5c.285-1.02 1.188-1.772 2.244-1.772zm0 1.342c-.592 0-1.056.483-1.056 1.1a1.084 1.084 0 001.056 1.1c.569 0 1.058-.51 1.058-1.1 0-.59-.464-1.1-1.058-1.1zm61.579-14.72l12.43 13.28v1.563l-14.063-14.844h1.633zm-66.735 8.496c1.056 0 1.959.75 2.243 1.77h6.55c.361 0 .646.296.646.671a.657.657 0 01-.394.617.647.647 0 01-.252.053h-6.551c-.285 1.02-1.188 1.77-2.244 1.77-1.058 0-1.96-.75-2.245-1.768h-1.34l-.096-.007a.658.658 0 01-.549-.665.652.652 0 01.646-.67h1.34c.285-1.02 1.188-1.77 2.246-1.77zm-.002 1.341c-.569 0-1.058.483-1.058 1.1 0 .616.464 1.1 1.058 1.1.592 0 1.056-.483 1.056-1.1 0-.616-.489-1.1-1.056-1.1zm5.158-6.223c1.058 0 1.96.75 2.245 1.768h1.392c.361 0 .646.297.646.672a.659.659 0 01-.182.471.653.653 0 01-.464.2h-1.392c-.284 1.02-1.187 1.771-2.245 1.771-1.056 0-1.96-.751-2.244-1.771h-6.5l-.096-.006a.658.658 0 01-.55-.665.651.651 0 01.646-.67h6.5c.285-1.02 1.188-1.77 2.244-1.77zm0 1.34c-.567 0-1.056.483-1.056 1.1 0 .616.462 1.1 1.056 1.1.594 0 1.058-.483 1.058-1.1 0-.615-.49-1.1-1.058-1.1zm69.391-4.955l4.618 4.688v1.563l-6.25-6.25h1.632zm4.618-21.874h-87.5a3.125 3.125 0 00-3.125 3.124v12.5h4.256a4.689 4.689 0 014.338-2.906h12.5a4.69 4.69 0 014.337 2.907h68.319v-12.5a3.126 3.126 0 00-3.125-3.126z" fill-rule="evenodd" fill="#fff"/>
</svg>
