<svg width="144" height="144" viewBox="0 0 144 144" xmlns="http://www.w3.org/2000/svg">
    <path d="M27 134.46v2.041a.5.5 0 00.5.5h2.067v5H27.5a5.506 5.506 0 01-5.5-5.5v-2.041h5zm19.231 2.541v5h-8.822v-5h8.822zm16.665 0v5h-8.822v-5h8.822zm16.664 0v5h-8.822v-5h8.822zm16.664 0v5h-8.822v-5h8.822zm16.664 0v5h-8.822v-5h8.822zM123 129.163v7.338c0 .911-.228 1.814-.658 2.612l-4.401-2.375a.493.493 0 00.059-.237v-7.338h5zm-96-11.366v8.822h-5v-8.822h5zm96-5.298v8.822h-5v-8.822h5zm-96-11.366v8.822h-5v-8.822h5zm96-5.298v8.822h-5v-8.822h5zM27 84.469v8.822h-5v-8.822h5zm96-5.298v8.822h-5v-8.822h5zM27 67.804v8.822h-5v-8.822h5zm96-5.297v8.822h-5v-8.822h5zM27 51.14v8.822h-5V51.14h5zm96-5.297v8.822h-5v-8.822h5zM27 34.476v8.822h-5v-8.822h5zm92.086-5.925l3.182 3.182c.714.715.928 1.79.542 2.725l-.02.043h.21v4.5h-5v-3h-2v-3.464l-.449-.45.449-.45v-.636h.637l2.449-2.45zm-8.919 2.45v5h-9.333v-5h9.333zm-17.167-2v2h2v5h-4.5a2.5 2.5 0 01-2.5-2.5v-4.5h5zm16.075-10.46l6.396 6.394-3.535 3.536-6.396-6.395 3.535-3.536zM27 17.811v8.822h-5v-8.822h5zm66-3.977v9.333h-5v-9.333h5zm6.065-5.306l6.395 6.396-3.535 3.536-6.396-6.396 3.536-3.536zM28.139 1.001v5H27.5a.5.5 0 00-.5.5V9.97h-5V6.501c0-3.033 2.468-5.5 5.5-5.5h.639zm62.361 0c.652 0 1.29.254 1.768.733l3.181 3.18L93 7.365v.637h-.637l-.449.45-.449-.45H88V6h-2v-5h4.5zm-45.697 0v5h-8.821v-5h8.821zm16.664 0v5h-8.821v-5h8.821zm16.665 0v5H69.31v-5h8.822z" fill-rule="evenodd" fill="#fff"/>
</svg>
