<svg width="144" height="144" viewBox="0 0 144 144" xmlns="http://www.w3.org/2000/svg">
    <g fill-rule="evenodd">
        <path d="M67.154 78.41H26.128V27.128H77.41v41.026h5.128V22H21v61.538h46.154z" fill="#fff"/>
        <path d="M53.582 50.736L92.795 89.95V78.41a2.564 2.564 0 015.128 0V96.36a2.564 2.564 0 01-2.564 2.564H77.41a2.564 2.564 0 010-5.128H88.95L49.736 54.582a2.564 2.564 0 010-3.626l.22-.22a2.564 2.564 0 013.626 0zM103.051 55.333h-12.82v5.129h12.82zM115.872 73.282v12.82H121v-12.82zM90.23 122h12.821v-5.128h-12.82zM72.282 122h12.82v-5.128h-12.82zM115.872 91.23v12.821H121v-12.82zM54.333 91.23v12.821h5.129v-12.82zM118.436 55.333h-10.257v5.129h10.257zM121 119.436v-10.257h-5.128v10.257zM56.897 122h10.257v-5.128H56.897z" fill="#fff"/>
        <path d="M121 57.897v10.257h-5.128v-12.82h2.564A2.564 2.564 0 01121 57.896zM118.436 122h-10.257v-5.128H121v2.564a2.564 2.564 0 01-2.564 2.564zM54.333 119.436v-10.257h5.129V122h-2.565a2.564 2.564 0 01-2.564-2.564z" fill="#fff"/>
    </g>
</svg>
