<svg width="96" height="96" viewBox="0 0 96 96" xmlns="http://www.w3.org/2000/svg">
    <g fill-rule="evenodd">
        <path d="M48.994 43.26l-22.715.008v-7.47l22.715-.002v7.464zm1.816-8.03c.02-.98-.334-1.244-1.268-1.241-7.946.028-15.893.03-23.84-.002-.99-.004-1.244.375-1.231 1.292.041 2.843.055 5.686-.004 8.53-.023 1.038.375 1.269 1.341 1.269h23.73c.919 0 1.294-.21 1.275-1.21a218.346 218.346 0 01-.03-6.911l.027-1.728z" fill="#fff"/>
        <path d="M73.029 50.082l.004.436c.032 1.804.018 3.61.011 5.414v1.805c0 .659-.048 1.24-.879 1.385-.278.049-.923 0-.923 0l-.066-.345a4.88 4.88 0 00-.17-.628c-.99-2.675-3.307-4.293-6.106-4.303-2.858-.008-5.208 1.59-6.175 4.34-.139.392-.194.908-.194.908h-19.5l-.03-.183a4.998 4.998 0 00-.179-.732c-.97-2.746-3.32-4.344-6.18-4.333-2.796.012-5.118 1.61-6.084 4.315l-.08.236c-.126.391-.211.749-.211.749H25.15l-.72-.007c-1.72-.031-1.867-.21-1.88-1.987V45.4l.003-11.519c.016-1.29.187-1.356 1.684-1.358H41.52c5.724 0 11.448.017 17.173-.017.865-.004 1.393.27 1.86 1.01 2.123 3.357 4.334 6.659 6.45 10.02.755 1.2 1.73 1.979 3.037 2.515l.593.238c2.878 1.124 2.386.543 2.397 3.794zm-8.242 14.317c-2.266-.021-3.952-1.764-3.94-4.073.014-2.294 1.727-3.98 4.038-3.972 2.301.007 3.991 1.706 3.993 4.014.002 2.273-1.629 3.949-3.878 4.028l-.213.003zm-32.208 0c-2.25-.032-3.92-1.778-3.903-4.084.017-2.286 1.717-3.964 4.016-3.962 2.333.001 4.033 1.728 4.015 4.079-.016 2.236-1.674 3.897-3.917 3.965l-.21.002zm38.702-20.412c-.9-.336-1.528-.898-2.042-1.704-2.177-3.412-4.424-6.777-6.58-10.201-.903-1.436-2.062-2.099-3.784-2.083-5.797.057-11.594.022-17.393.023-5.87 0-11.74-.004-17.611 0-2.542.002-3.817 1.278-3.817 3.83-.003 7.547.13 15.098-.05 22.641-.105 4.428 1.983 5.14 5.111 5.14h1.204s.056.435.232.935c.956 2.7 3.314 4.328 6.077 4.34 2.844.01 5.21-1.594 6.19-4.333.1-.28.249-.95.249-.95h19.446s.075.549.222.958c.986 2.74 3.347 4.336 6.194 4.324 2.76-.013 5.097-1.649 6.08-4.344.137-.371.233-.952.233-.952s.68.015.977 0c2.063-.104 3.31-1.489 3.317-3.567.007-2.55-.003-5.104.003-7.656.01-4.055.472-4.64-4.258-6.4" fill="#fff"/>
        <path d="M54.028 43.243v-7.43h4.31l3.676 7.436-7.986-.006zm5.955-8.475c-.25-.52-.583-.775-1.177-.768-1.86.026-3.72.026-5.58-.001-.741-.014-1.027.241-1.02 1.012.034 3.026.037 6.053 0 9.08-.01.788.294.995 1.027.98 1.748-.038 3.5-.014 5.25-.014l3.646-.007 1.822.018c.798.013.912-.251.637-.859l-.052-.11c-1.021-2.07-2.036-4.141-3.045-6.216l-1.508-3.115z" fill="#fff"/>
    </g>
</svg>
