<svg width="144" height="144" viewBox="0 0 144 144" xmlns="http://www.w3.org/2000/svg">
    <g fill-rule="evenodd">
        <path d="M117.667 52.917v4.166H57.249l.001 56.25h-4.167v-56.25H26v-4.166z" fill="#fff"/>
        <path d="M109.333 27.917h-75c-5.753 0-10.416 4.663-10.416 10.416V105c0 5.753 4.663 10.417 10.416 10.417h75c5.753 0 10.417-4.664 10.417-10.417V38.333c0-5.753-4.664-10.416-10.417-10.416zm-75 4.166h75a6.25 6.25 0 016.25 6.25V105a6.25 6.25 0 01-6.25 6.25h-75a6.25 6.25 0 01-6.25-6.25V38.333a6.25 6.25 0 016.25-6.25z" fill="#fff"/>
    </g>
</svg>
