<svg width="144" height="144" viewBox="0 0 144 144" xmlns="http://www.w3.org/2000/svg">
    <path d="M117.802 81.542l-8.27 2.926a3.817 3.817 0 00-2.163 5.216l3.69 7.889a6.361 6.361 0 01-1.273 7.251l-4.962 4.962a6.361 6.361 0 01-7.251 1.273l-7.889-3.69a3.817 3.817 0 00-5.216 2.163l-2.926 8.27a6.361 6.361 0 01-5.98 4.198h-7.124a6.361 6.361 0 01-5.98-4.198l-2.926-8.27a3.817 3.817 0 00-5.216-2.163l-7.889 3.69a6.361 6.361 0 01-7.251-1.273l-4.962-4.962a6.361 6.361 0 01-1.273-7.251l3.69-7.889a3.817 3.817 0 00-2.163-5.216l-8.27-2.926A6.361 6.361 0 0122 75.562v-7.124a6.361 6.361 0 014.198-5.98l8.27-2.926a3.817 3.817 0 002.163-5.216l-3.69-7.889a6.361 6.361 0 011.273-7.251l4.962-4.962a6.361 6.361 0 017.251-1.273l7.889 3.69a3.817 3.817 0 005.216-2.163l2.926-8.27A6.361 6.361 0 0168.438 22h7.124a6.361 6.361 0 015.98 4.198l2.926 8.27a3.817 3.817 0 005.216 2.163l7.889-3.69a6.361 6.361 0 017.251 1.273l4.962 4.962a6.361 6.361 0 011.273 7.251l-3.69 7.889a3.817 3.817 0 002.163 5.216l8.27 2.926a6.361 6.361 0 014.198 5.98v7.124a6.361 6.361 0 01-4.198 5.98zM72 53.25c-10.355 0-18.75 8.395-18.75 18.75S61.645 90.75 72 90.75 90.75 82.355 90.75 72C90.67 61.678 82.322 53.33 72 53.25z" fill-rule="evenodd" fill="#fff"/>
</svg>
