<svg width="65" height="36" viewBox="0 0 65 36" xmlns="http://www.w3.org/2000/svg">
    <path d="M46.5 0a3.5 3.5 0 012.577 5.869L59.13 15.923a3.5 3.5 0 110 5.154l-9.627 9.626a3.5 3.5 0 11-6.359 2.798h-7.29a3.502 3.502 0 11-6.532-2.47l-9.352-9.354A3.487 3.487 0 0118.5 22a3.491 3.491 0 01-2.617-1.176l-9.58 9.58a3.5 3.5 0 11-3.803-1.26V6.856A3.502 3.502 0 013.5 0a3.5 3.5 0 012.325 6.117l10.058 10.06A3.491 3.491 0 0118.5 15c.525 0 1.024.116 1.47.323l9.727-9.727A3.5 3.5 0 1136 3.499h7l.005-.191A3.5 3.5 0 0146.5 0zm-3.355 4.5h-7.29a3.502 3.502 0 01-5.45 1.803l-9.58 9.58A3.491 3.491 0 0122 18.5a3.491 3.491 0 01-1.176 2.617l9.059 9.06A3.5 3.5 0 0136 32.5l7-.001a3.5 3.5 0 015.87-2.576l9.626-9.626a3.477 3.477 0 01-.46-1.297h-8.072a3.5 3.5 0 110-1.001h8.071c.067-.469.227-.907.46-1.297L48.298 6.504a3.502 3.502 0 01-5.152-2.003zM3.5 7h-.001v22H3.5c.786 0 1.51.259 2.095.696l9.727-9.727A3.487 3.487 0 0115 18.5c0-.525.116-1.023.323-1.47L4.97 6.677A3.487 3.487 0 013.5 7z" fill-rule="evenodd" fill="#fff"/>
</svg>
