<svg width="144" height="144" viewBox="0 0 144 144" xmlns="http://www.w3.org/2000/svg">
    <path d="M96.39 105.214a4.02 4.02 0 010 8.039h-52.7a4.02 4.02 0 010-8.039h52.7zm0 3h-52.7a1.02 1.02 0 000 2.039h52.7a1.02 1.02 0 000-2.039zM79 23.494c.948 0 1.717.769 1.717 1.717V27.5h3.436a1.677 1.677 0 010 3.354h-3.437v1.986h3.437a1.677 1.677 0 010 3.354h-3.437v1.989h3.437a1.677 1.677 0 010 3.354h-3.437v4.79h10.848a6.655 6.655 0 016.647 6.647V96.93a6.655 6.655 0 01-6.647 6.647H48.515a6.655 6.655 0 01-6.647-6.647V52.974a6.655 6.655 0 016.647-6.647H59.73v-4.79h-3.877a1.678 1.678 0 010-3.354h3.877v-1.989h-3.877a1.676 1.676 0 010-3.354h3.877v-1.986h-3.877a1.677 1.677 0 010-3.354h3.877l.001-2.289a1.717 1.717 0 113.434 0V27.5H66.6a1.677 1.677 0 010 3.354h-3.436v1.986H66.6a1.677 1.677 0 010 3.354h-3.436v1.989H66.6a1.677 1.677 0 010 3.354h-3.436v4.79h14.118v-4.79h-3.876a1.678 1.678 0 010-3.354h3.876v-1.989h-3.876a1.677 1.677 0 010-3.354h3.876v-1.986h-3.876a1.677 1.677 0 010-3.354h3.876l.001-2.289c0-.948.769-1.717 1.717-1.717zm12.564 25.833H48.515a3.652 3.652 0 00-3.647 3.647V96.93a3.652 3.652 0 003.647 3.647h43.049a3.652 3.652 0 003.647-3.647V52.974a3.652 3.652 0 00-3.647-3.647zm-10.411 9.692a1.283 1.283 0 011.062 2L75.3 71.4h1.141a1.282 1.282 0 01.977 2.112L61.5 92.377a1.282 1.282 0 01-2.2-1.217l4.769-14.837h-1.78a1.282 1.282 0 01-1.209-1.709l5.309-14.748a1.285 1.285 0 011.207-.847h13.557zm-2.394 2.561H68.493L64.11 73.759h1.714a1.285 1.285 0 011.221 1.675l-3.32 10.328 9.953-11.8H72.9a1.282 1.282 0 01-1.067-1.99l6.926-10.392z" fill-rule="evenodd"/>
</svg>
