<svg width="144" height="144" viewBox="0 0 144 144" xmlns="http://www.w3.org/2000/svg">
    <path d="M93 46.472A4.533 4.533 0 0197.528 51v42A4.533 4.533 0 0193 97.528H51A4.533 4.533 0 0146.472 93V51A4.533 4.533 0 0151 46.472h42zm0 3.056H51c-.813 0-1.471.66-1.472 1.472v42c0 .813.66 1.471 1.472 1.472h42c.813 0 1.471-.66 1.472-1.472V51c0-.813-.66-1.471-1.472-1.472zm-17.952 7.64l2.16 2.162-9.999 9.994A5.52 5.52 0 0167.9 72a5.528 5.528 0 01-10.84 1.53L52 73.529v-3.057h5.06a5.528 5.528 0 017.99-3.31l9.998-9.994zm7.359 9.304a5.53 5.53 0 015.312 4H92v3.057l-4.283.001a5.528 5.528 0 11-5.31-7.058zm-20.034 3.056a2.472 2.472 0 100 4.944 2.472 2.472 0 000-4.944zm20.027 0a2.472 2.472 0 10.008 4.944 2.472 2.472 0 00-.008-4.944z" fill-rule="evenodd"/>
</svg>
