<svg width="144" height="144" viewBox="0 0 144 144" xmlns="http://www.w3.org/2000/svg">
    <path d="M112.75 51h-81.5a7.5 7.5 0 00-7.5 7.5v27a7.5 7.5 0 007.5 7.5h81.5a7.5 7.5 0 007.5-7.5v-27a7.5 7.5 0 00-7.5-7.5zm-81.5 3h81.5a4.5 4.5 0 014.5 4.5v27a4.5 4.5 0 01-4.5 4.5h-81.5a4.5 4.5 0 01-4.5-4.5v-27a4.5 4.5 0 014.5-4.5zm29.5 8.5l1.5-1.5 1.5 1.5v7.94l-1.5 1.5-1.5-1.5V62.5zm2-2l1.5-1.5h4.94l1.5 1.5-1.5 1.5h-4.94l-1.5-1.5zm0 12l1.5-1.5h4.94l1.5 1.5-1.5 1.5h-4.94l-1.5-1.5zm0 12l1.5-1.5h4.94l1.5 1.5-1.5 1.5h-4.94l-1.5-1.5zm-2-10l1.5-1.5 1.5 1.5v7.94l-1.5 1.5-1.5-1.5V74.5zm9 0l1.5-1.5 1.5 1.5v7.94l-1.5 1.5-1.5-1.5V74.5zm5-12l1.5-1.5 1.5 1.5v7.94l-1.5 1.5-1.5-1.5V62.5zm2-2l1.5-1.5h4.94l1.5 1.5-1.5 1.5h-4.94l-1.5-1.5zm0 12l1.5-1.5h4.94l1.5 1.5-1.5 1.5h-4.94l-1.5-1.5zm12 0l1.5-1.5h4.94l1.5 1.5-1.5 1.5h-4.94l-1.5-1.5zm-12 12l1.5-1.5h4.94l1.5 1.5-1.5 1.5h-4.94l-1.5-1.5zm-2-10l1.5-1.5 1.5 1.5v7.94l-1.5 1.5-1.5-1.5V74.5zm9 0l1.5-1.5 1.5 1.5v7.94l-1.5 1.5-1.5-1.5V74.5zm-52-12l1.5-1.5 1.5 1.5v7.94l-1.5 1.5-1.5-1.5V62.5zm9 0l1.5-1.5 1.5 1.5v7.94l-1.5 1.5-1.5-1.5V62.5zm14 0l1.5-1.5 1.5 1.5v7.94l-1.5 1.5-1.5-1.5V62.5zm-21-2l1.5-1.5h4.94l1.5 1.5-1.5 1.5h-4.94l-1.5-1.5zm0 24l1.5-1.5h4.94l1.5 1.5-1.5 1.5h-4.94l-1.5-1.5zm-2-10l1.5-1.5 1.5 1.5v7.94l-1.5 1.5-1.5-1.5V74.5zm9 0l1.5-1.5 1.5 1.5v7.94l-1.5 1.5-1.5-1.5V74.5zm5-12l1.5-1.5 1.5 1.5v7.94l-1.5 1.5-1.5-1.5V62.5zm2-2l1.5-1.5h4.94l1.5 1.5-1.5 1.5h-4.94l-1.5-1.5zm0 24l1.5-1.5h4.94l1.5 1.5-1.5 1.5h-4.94l-1.5-1.5zm-2-10l1.5-1.5 1.5 1.5v7.94l-1.5 1.5-1.5-1.5V74.5zm9 0l1.5-1.5 1.5 1.5v7.94l-1.5 1.5-1.5-1.5V74.5zm34-14l1.5-1.5h4.94l1.5 1.5-1.5 1.5h-4.94l-1.5-1.5zm0 24l1.5-1.5h4.94l1.5 1.5-1.5 1.5h-4.94l-1.5-1.5zm7-22l1.5-1.5 1.5 1.5v7.94l-1.5 1.5-1.5-1.5V62.5zm0 12l1.5-1.5 1.5 1.5v7.94l-1.5 1.5-1.5-1.5V74.5zm5-12l1.5-1.5 1.5 1.5v7.94l-1.5 1.5-1.5-1.5V62.5zm2-2l1.5-1.5h4.94l1.5 1.5-1.5 1.5h-4.94l-1.5-1.5zm0 12l1.5-1.5h4.94l1.5 1.5-1.5 1.5h-4.94l-1.5-1.5zm0 12l1.5-1.5h4.94l1.5 1.5-1.5 1.5h-4.94l-1.5-1.5zm7-22l1.5-1.5 1.5 1.5v7.94l-1.5 1.5-1.5-1.5V62.5zm-9 12l1.5-1.5 1.5 1.5v7.94l-1.5 1.5-1.5-1.5V74.5zm9 0l1.5-1.5 1.5 1.5v7.94l-1.5 1.5-1.5-1.5V74.5z" fill-rule="evenodd"/>
</svg>
