<svg width="144" height="144" viewBox="0 0 144 144" xmlns="http://www.w3.org/2000/svg">
    <path d="M84.783 44.726a21.5 21.5 0 017.491 24.444l-6.286 17.777-5.442 15.386c-.046.13-.11.254-.19.366-1.356 1.917-4.634 3.155-8.356 3.155-3.722 0-7-1.238-8.356-3.155a1.465 1.465 0 01-.19-.366l-5.436-15.367a1.5 1.5 0 01-.007-.019L51.726 69.17a21.5 21.5 0 0133.057-24.444zM62.467 90.55l3.733 10.556c.776.891 2.943 1.749 5.8 1.749 2.857 0 5.022-.858 5.8-1.749l3.733-10.555c-2.593 1.168-5.93 1.84-9.533 1.84-3.602 0-6.94-.673-9.533-1.841zm-1.465-43.41a18.5 18.5 0 00-6.448 21.031l6.211 17.563c1.412 1.79 5.453 3.657 11.235 3.657 5.782 0 9.823-1.867 11.235-3.657l6.211-17.563a18.5 18.5 0 00-28.444-21.03zm40.762 30.327l7.791 4.507a1.5 1.5 0 11-1.5 2.6l-7.791-4.507a1.5 1.5 0 111.5-2.6zm-57.476.551a1.5 1.5 0 01-.55 2.05l-7.793 4.5a1.5 1.5 0 11-1.5-2.6l7.793-4.5a1.5 1.5 0 012.05.55zm70.726-24.331a1.5 1.5 0 01-.894 2.44l-8.866 1.546a1.5 1.5 0 11-.515-2.955l8.866-1.547a1.5 1.5 0 011.409.516zm-84.617-.521l8.865 1.553a1.5 1.5 0 11-.517 2.955L29.88 56.12a1.5 1.5 0 11.517-2.955zm15.43-24.674l5.789 6.891a1.501 1.501 0 11-2.3 1.93l-5.789-6.891a1.501 1.501 0 112.3-1.93zm54.466-.184c.635.533.718 1.48.185 2.115l-5.791 6.89a1.502 1.502 0 11-2.3-1.931l5.791-6.889a1.501 1.501 0 012.115-.185zM72 18.008a1.5 1.5 0 011.5 1.5v9a1.5 1.5 0 01-3 0v-9a1.5 1.5 0 011.5-1.5z" fill-rule="evenodd"/>
</svg>
