<svg width="144" height="144" viewBox="0 0 144 144" xmlns="http://www.w3.org/2000/svg">
    <path d="M118.418 45.939v52.2H25.66v-52.2h92.758zm-3.189 23.469h-25.54v25.541h25.54V69.408zM86.5 49.129H57.58v45.82H86.5v-45.82zm-32.111 0H28.85v45.82h25.539v-45.82zm49.625 24.015a1.607 1.607 0 01.717 2.145l-3.916 7.83h2.585v-2.293a1.6 1.6 0 013.19 0v2.292h.094a1.6 1.6 0 010 3.19h-.094v5.166a1.6 1.6 0 01-1.596 1.594 1.6 1.6 0 01-1.594-1.594v-5.166h-5.166a1.594 1.594 0 01-1.431-2.3l5.074-10.148a1.642 1.642 0 012.137-.716zm-56.569-4.903a5.185 5.185 0 01-1.715 3.8c1.078.97 1.7 2.35 1.715 3.8a5.651 5.651 0 01-5.868 5.398 5.788 5.788 0 01-5.736-4.281 1.593 1.593 0 113.107-.708 2.6 2.6 0 002.629 1.8 2.248 2.248 0 100-4.416 1.6 1.6 0 110-3.19 2.248 2.248 0 100-4.415 2.6 2.6 0 00-2.629 1.8 1.6 1.6 0 01-1.916 1.2 1.583 1.583 0 01-1.186-1.908 5.789 5.789 0 015.736-4.28 5.651 5.651 0 015.863 5.4zm25.047-5.402a5.226 5.226 0 014.921 3.187 6.391 6.391 0 01-1.141 6.8l-4.815 5.221h4.807a1.6 1.6 0 110 3.19v.002h-8.449a1.594 1.594 0 01-1.172-2.677l7.281-7.895a3.156 3.156 0 00.566-3.362 1.991 1.991 0 00-1.922-1.277 3.143 3.143 0 00-2.982 2.311 1.6 1.6 0 01-3.043-.958 6.312 6.312 0 015.949-4.542zm42.737-13.71h-7.113a5.275 5.275 0 01-1.552 2.628 5.187 5.187 0 011.715 3.805 5.65 5.65 0 01-5.862 5.4 5.791 5.791 0 01-5.736-4.279 1.593 1.593 0 113.108-.7 2.6 2.6 0 002.628 1.794 2.248 2.248 0 100-4.415 1.6 1.6 0 110-3.19 2.828 2.828 0 002.246-1.035H89.689v17.082h25.54v-17.09z" fill-rule="evenodd"/>
</svg>
