<svg width="144" height="144" viewBox="0 0 144 144" xmlns="http://www.w3.org/2000/svg">
    <path d="M98.678 47.202c15.429 12.95 19.331 35.108 9.255 52.549a1.5 1.5 0 01-1.298.749h-69.27a1.501 1.501 0 01-1.3-.749c-10.076-17.441-6.174-39.6 9.255-52.549 15.43-12.949 37.929-12.949 53.358 0zM73.5 40.52L73.5 48h-3v-7.48a38.416 38.416 0 00-24.647 10.211l5.288 5.288-2.121 2.121-5.29-5.289a38.496 38.496 0 00-10.203 24.65L41 77.5v3h-7.473a38.392 38.392 0 004.714 17h67.518a38.392 38.392 0 004.714-17H103v-3h7.473a38.496 38.496 0 00-10.204-24.649l-5.288 5.29-2.122-2.122 5.288-5.288A38.416 38.416 0 0073.5 40.52zM62.05 54.98L72.113 69.5A9.5 9.5 0 0181.5 79a9.511 9.511 0 01-9.5 9.5 9.5 9.5 0 01-6.796-16.138l-3.153-17.383zM72 74.5a4.5 4.5 0 100 9 4.5 4.5 0 000-9z" fill-rule="evenodd"/>
</svg>
