<svg width="144" height="144" viewBox="0 0 144 144" xmlns="http://www.w3.org/2000/svg">
    <path d="M103.565 43.414a6.655 6.655 0 016.647 6.647v43.956a6.655 6.655 0 01-6.647 6.647H40.514a6.655 6.655 0 01-6.647-6.647V50.061a6.655 6.655 0 016.647-6.647h63.051zm0 3H40.514a3.652 3.652 0 00-3.647 3.647v43.956a3.652 3.652 0 003.647 3.647h5.514V59.028h22.083v38.636h35.454a3.652 3.652 0 003.647-3.647V50.061a3.652 3.652 0 00-3.647-3.647zM65.111 62.028H49.028v35.636h16.083V62.028zm-3.092 28.891a1.507 1.507 0 110 3.013h-9.9a1.507 1.507 0 110-3.013h9.9zM98.1 58.575a1.283 1.283 0 011.062 2l-6.92 10.382h1.141a1.282 1.282 0 01.977 2.112L78.445 91.933a1.281 1.281 0 01-2.199-1.217l4.767-14.837h-1.779a1.282 1.282 0 01-1.209-1.709l5.308-14.748a1.287 1.287 0 011.207-.847H98.1zM62.019 84.769a1.507 1.507 0 110 3.013h-9.9a1.507 1.507 0 110-3.013h9.9zm33.687-23.633H85.443l-4.385 12.182h1.715a1.285 1.285 0 011.221 1.675l-3.321 10.325 9.953-11.8h-.779a1.282 1.282 0 01-1.067-1.99l6.926-10.392zM62.019 78.619a1.507 1.507 0 110 3.013h-9.9a1.507 1.507 0 110-3.013h9.9zm0-6.151a1.507 1.507 0 010 3.014h-9.9a1.507 1.507 0 010-3.014h9.9zm0-6.149a1.507 1.507 0 010 3.014h-9.9a1.507 1.507 0 110-3.014h9.9z" fill-rule="evenodd"/>
</svg>
