<svg width="144" height="144" viewBox="0 0 144 144" xmlns="http://www.w3.org/2000/svg">
    <path d="M71.9 23.565a2.25 2.25 0 012.25 2.25l-.001 18.25h7.786l.001-1.282a2.246 2.246 0 014.492 0v6.725a2.247 2.247 0 01-4.492 0l-.001-.943h-7.786V60.19h7.786l.001-1.407a2.246 2.246 0 014.492 0v6.725a2.247 2.247 0 01-4.492 0l-.001-.818h-7.786l.001 53.375a2.25 2.25 0 01-4.5 0l-.001-66.375h-7.804l.001.735a2.247 2.247 0 01-4.492 0V45.7a2.246 2.246 0 014.492 0l-.001 1.49h7.804l.001-21.375a2.25 2.25 0 012.25-2.25z" fill-rule="evenodd"/>
</svg>
