<svg width="144" height="144" viewBox="0 0 144 144" xmlns="http://www.w3.org/2000/svg">
    <path d="M84.783 44.726a21.5 21.5 0 017.491 24.444l-6.286 17.777-5.442 15.386c-.046.13-.11.254-.19.366-1.356 1.917-4.634 3.155-8.356 3.155-3.722 0-7-1.238-8.356-3.155a1.465 1.465 0 01-.19-.366l-5.436-15.367a1.5 1.5 0 01-.007-.019L51.726 69.17a21.5 21.5 0 0133.057-24.444zM62.467 90.55l3.733 10.556c.776.891 2.943 1.749 5.8 1.749 2.857 0 5.022-.858 5.8-1.749l3.732-10.555c-2.593 1.168-5.93 1.84-9.532 1.84-3.602 0-6.94-.673-9.533-1.841zm-1.465-43.41a18.5 18.5 0 00-6.448 21.031l6.211 17.563c1.412 1.79 5.453 3.657 11.235 3.657 5.782 0 9.823-1.867 11.235-3.657l6.211-17.563a18.5 18.5 0 00-28.444-21.03zm11.005 5.46c.726 0 1.419.306 1.907.843a6.879 6.879 0 011.42 3.023c.34-.944.9-1.793 1.633-2.479a2.639 2.639 0 012.015-.612c.844.1 1.612.539 2.124 1.217 1.592 2.05 1.228 5.984.54 11.319l-.161 1.272-1.927 15.733-2.979-.365 2.1-17.023c.354-2.751 1.014-7.873.065-9.095l-.007-.009c-.942.96-2.115 5.793-2.573 10.716a1.479 1.479 0 01-1.586 1.361 1.5 1.5 0 01-1.41-1.537c.127-4.831-.4-9.657-1.158-11.093-.765 1.436-1.3 6.263-1.177 11.1a1.5 1.5 0 01-2.993.177c-.459-4.932-1.636-9.773-2.579-10.721l-.016.02c-.935 1.2-.3 6.11.074 9.042l.17 1.337 1.932 15.725-2.979.365-2.1-17.052c-.685-5.314-1.047-9.233.532-11.265a3.137 3.137 0 012.138-1.223 2.638 2.638 0 012.015.612 6.375 6.375 0 011.644 2.5 6.925 6.925 0 011.429-3.045 2.577 2.577 0 011.907-.844z" fill-rule="evenodd"/>
</svg>
