<svg width="144" height="144" viewBox="0 0 144 144" xmlns="http://www.w3.org/2000/svg">
    <path d="M42.03 44.5a3.483 3.483 0 013.34 2.456l3.75 12a3.5 3.5 0 01-3.34 4.544H45V76a3.5 3.5 0 01-3.5 3.5H31.028V94c0 .26.212.471.472.472h38.972V79.5H60a3.5 3.5 0 01-3.5-3.5V63.5h-.78a3.5 3.5 0 01-3.34-4.544l3.75-12a3.483 3.483 0 013.34-2.456h25.06a3.483 3.483 0 013.34 2.456l3.75 12a3.5 3.5 0 01-3.34 4.544h-.78V76a3.5 3.5 0 01-3.5 3.5H73.529v14.972H112.5c.26 0 .471-.212.472-.472V79.5H102.5A3.5 3.5 0 0199 76V63.5h-.78a3.5 3.5 0 01-3.34-4.544l3.75-12a3.483 3.483 0 013.34-2.456h25.06a3.483 3.483 0 013.34 2.456l3.75 12a3.5 3.5 0 01-3.34 4.544H130V76a3.5 3.5 0 01-3.5 3.5h-10.472V94a3.532 3.532 0 01-3.528 3.528H73.529v14.158a5.54 5.54 0 013.785 3.786H99a1.5 1.5 0 011.5 1.5v.056a1.5 1.5 0 01-1.5 1.5l-21.688.001A5.536 5.536 0 0172 122.528a5.53 5.53 0 01-5.314-4H45.5a1.5 1.5 0 01-1.5-1.5v-.056a1.5 1.5 0 011.5-1.5h21.186a5.54 5.54 0 013.786-3.786V97.528H31.5A3.532 3.532 0 0127.972 94V79.5H17.5A3.5 3.5 0 0114 76V63.5h-.78a3.5 3.5 0 01-3.34-4.544l3.75-12a3.483 3.483 0 013.34-2.456h25.06zM72 114.528a2.472 2.472 0 100 4.944 2.472 2.472 0 000-4.944zM42 63.5H17V76a.5.5 0 00.5.5h14V66h6v10.5h4a.5.5 0 00.5-.5V63.5zm42.5 0h-25V76a.5.5 0 00.5.5h13.5V66h6v10.5H84a.5.5 0 00.5-.5V63.5zm42.5 0h-25V76a.5.5 0 00.5.5h14V66h6v10.5h4a.5.5 0 00.5-.5V63.5zM26.5 66v6h-6v-6h6zm42 0v6h-6v-6h6zm43 0v6h-6v-6h6zM42.03 47.5H16.97a.5.5 0 00-.477.351l-3.75 12a.5.5 0 00.477.649h32.56a.5.5 0 00.477-.649l-3.75-12a.5.5 0 00-.477-.351zm42.5 0H59.47a.5.5 0 00-.477.351l-3.75 12a.5.5 0 00.477.649h32.56a.5.5 0 00.477-.649l-3.75-12a.5.5 0 00-.477-.351zm42.5 0h-25.06a.5.5 0 00-.477.351l-3.75 12a.5.5 0 00.477.649h32.56a.5.5 0 00.477-.649l-3.75-12a.5.5 0 00-.477-.351z" fill-rule="evenodd"/>
</svg>
